<svg xmlns="http://www.w3.org/2000/svg" version="1.1" xmlnsXlink="http://www.w3.org/1999/xlink" xmlnssvgjs="http://svgjs.dev/svgjs" width="1000" height="255" viewBox="0 0 1000 255"><g transform="matrix(1,0,0,1,-0.6060605869992628,-0.2761559022871012)"><svg viewBox="0 0 396 101" data-background-color="#ffffff" preserveAspectRatio="xMidYMid meet" height="255" width="1000" xmlns="http://www.w3.org/2000/svg" xmlns:xlink="http://www.w3.org/1999/xlink"><defs></defs><g id="tight-bounds" transform="matrix(1,0,0,1,0.24000000754830353,0.10937939659214635)"><svg viewBox="0 0 395.52 100.7812412068157" height="100.7812412068157" width="395.52"><g><svg viewBox="0 0 395.52 100.7812412068157" height="100.7812412068157" width="395.52"><g><svg viewBox="0 0 395.52 100.7812412068157" height="100.7812412068157" width="395.52"><g><svg viewBox="0 0 395.52 100.7812412068157" height="100.7812412068157" width="395.52"><g><svg viewBox="0 0 395.52 100.7812412068157" height="100.7812412068157" width="395.52"><g transform="matrix(1,0,0,1,0,0)"><svg width="395.52" viewBox="0.15000000596046448 -39.45000076293945 156.16000366210938 39.790000915527344" height="100.7812412068157" data-palette-color="#ea8a32"><path d="M0.44-34.86L27.05-34.91 26.81-24.56 19.53-24.27 17.68-1.12 7.37-0.59 7.42-23.73 0.15-23.34 0.44-34.86ZM57.61-17.24L57.61-17.24Q57.61-15.01 57.1-12.95 56.59-10.89 55.62-9.08 54.66-7.28 53.28-5.77 51.9-4.27 50.18-3.2 48.46-2.12 46.43-1.53 44.41-0.93 42.14-0.93L42.14-0.93Q39.94-0.93 37.95-1.49 35.96-2.05 34.23-3.06 32.49-4.08 31.09-5.51 29.68-6.93 28.7-8.68 27.71-10.42 27.16-12.43 26.61-14.43 26.61-16.6L26.61-16.6Q26.61-18.73 27.12-20.76 27.63-22.8 28.6-24.61 29.56-26.42 30.93-27.93 32.3-29.44 33.99-30.54 35.69-31.64 37.67-32.25 39.65-32.86 41.84-32.86L41.84-32.86Q45.38-32.86 48.3-31.76 51.22-30.66 53.28-28.63 55.34-26.59 56.48-23.69 57.61-20.8 57.61-17.24ZM46.77-16.6L46.77-16.6Q46.77-17.65 46.47-18.64 46.16-19.63 45.58-20.4 44.99-21.17 44.13-21.64 43.26-22.12 42.14-22.12L42.14-22.12Q40.99-22.12 40.09-21.7 39.18-21.29 38.54-20.57 37.89-19.85 37.55-18.88 37.2-17.92 37.2-16.85L37.2-16.85Q37.2-15.82 37.5-14.79 37.79-13.77 38.38-12.94 38.96-12.11 39.83-11.6 40.7-11.08 41.84-11.08L41.84-11.08Q42.99-11.08 43.91-11.54 44.82-11.99 45.46-12.76 46.09-13.53 46.43-14.53 46.77-15.53 46.77-16.6ZM86.98-19.38L86.98-19.38Q86.98-15.97 86.1-13.22 85.22-10.47 83.65-8.34 82.08-6.2 79.9-4.66 77.73-3.13 75.14-2.14 72.55-1.15 69.64-0.67 66.72-0.2 63.64-0.2L63.64-0.2Q62.5-0.2 61.4-0.26 60.3-0.32 59.15-0.44L59.15-0.44 59.83-33.2Q62.52-34.06 65.36-34.41 68.21-34.77 71.02-34.77L71.02-34.77Q74.51-34.77 77.44-33.72 80.37-32.67 82.49-30.69 84.61-28.71 85.8-25.85 86.98-23 86.98-19.38ZM76.97-17.48L76.97-17.82Q77-19.14 76.69-20.36 76.39-21.58 75.69-22.52 75-23.46 73.92-24.04 72.85-24.61 71.36-24.66L71.36-24.66 70.38-9.52Q71.85-9.74 73.04-10.49 74.24-11.23 75.1-12.32 75.97-13.4 76.45-14.73 76.92-16.06 76.97-17.48L76.97-17.48ZM118.62-17.24L118.62-17.24Q118.62-15.01 118.11-12.95 117.6-10.89 116.63-9.08 115.67-7.28 114.29-5.77 112.91-4.27 111.19-3.2 109.47-2.12 107.44-1.53 105.41-0.93 103.14-0.93L103.14-0.93Q100.94-0.93 98.95-1.49 96.97-2.05 95.23-3.06 93.5-4.08 92.09-5.51 90.69-6.93 89.7-8.68 88.71-10.42 88.16-12.43 87.61-14.43 87.61-16.6L87.61-16.6Q87.61-18.73 88.13-20.76 88.64-22.8 89.6-24.61 90.57-26.42 91.94-27.93 93.3-29.44 95-30.54 96.7-31.64 98.67-32.25 100.65-32.86 102.85-32.86L102.85-32.86Q106.39-32.86 109.31-31.76 112.22-30.66 114.29-28.63 116.35-26.59 117.49-23.69 118.62-20.8 118.62-17.24ZM107.78-16.6L107.78-16.6Q107.78-17.65 107.48-18.64 107.17-19.63 106.58-20.4 106-21.17 105.13-21.64 104.26-22.12 103.14-22.12L103.14-22.12Q101.99-22.12 101.09-21.7 100.19-21.29 99.54-20.57 98.89-19.85 98.55-18.88 98.21-17.92 98.21-16.85L98.21-16.85Q98.21-15.82 98.5-14.79 98.8-13.77 99.38-12.94 99.97-12.11 100.83-11.6 101.7-11.08 102.85-11.08L102.85-11.08Q104-11.08 104.91-11.54 105.83-11.99 106.46-12.76 107.1-13.53 107.44-14.53 107.78-15.53 107.78-16.6ZM118.74-39.21L130.51-39.45 127.77-24.61 120.25-24.37 118.74-39.21ZM156.31-12.99L156.31-12.99Q156.31-9.64 155.15-7.14 153.99-4.64 151.98-2.98 149.96-1.32 147.27-0.49 144.57 0.34 141.47 0.34L141.47 0.34Q140.27 0.34 138.84 0.02 137.41-0.29 135.95-0.77 134.48-1.25 133.13-1.79 131.77-2.34 130.72-2.83L130.72-2.83 131.8-12.89Q133.87-11.65 136.4-11 138.93-10.35 141.37-10.35L141.37-10.35Q141.83-10.35 142.49-10.39 143.15-10.42 143.75-10.61 144.35-10.79 144.76-11.16 145.18-11.52 145.18-12.21L145.18-12.21Q145.18-12.67 144.88-13 144.59-13.33 144.13-13.54 143.66-13.75 143.08-13.85 142.49-13.96 141.93-14.01 141.37-14.06 140.88-14.06 140.39-14.06 140.1-14.06L140.1-14.06Q138-14.06 136.28-14.79 134.56-15.53 133.32-16.83 132.09-18.14 131.41-19.93 130.72-21.73 130.72-23.83L130.72-23.83Q130.72-26.71 131.88-28.99 133.04-31.27 134.99-32.87 136.93-34.47 139.44-35.33 141.96-36.18 144.64-36.18L144.64-36.18Q145.84-36.18 147.11-36.1 148.38-36.01 149.63-35.79 150.89-35.57 152.09-35.23 153.28-34.89 154.36-34.38L154.36-34.38 153.43-24.46Q151.77-25.02 149.95-25.4 148.13-25.78 146.4-25.78L146.4-25.78Q146.08-25.78 145.58-25.77 145.08-25.76 144.53-25.7 143.98-25.63 143.42-25.51 142.86-25.39 142.42-25.18 141.98-24.98 141.71-24.63 141.44-24.29 141.47-23.83L141.47-23.83Q141.49-23.29 141.87-22.96 142.25-22.63 142.85-22.45 143.44-22.27 144.16-22.19 144.88-22.12 145.59-22.11 146.3-22.09 146.91-22.11 147.52-22.12 147.91-22.07L147.91-22.07Q149.87-21.95 151.43-21.24 152.99-20.53 154.08-19.36 155.16-18.19 155.74-16.56 156.31-14.94 156.31-12.99Z" opacity="1" transform="matrix(1,0,0,1,0,0)" fill="#ea8a32" class="undefined-text-0" data-fill-palette-color="primary" id="text-0"></path></svg></g></svg></g></svg></g></svg></g><g></g></svg></g></svg><rect width="395.52" height="100.7812412068157" fill="none" stroke="none" visibility="hidden"></rect></g></svg></g></svg>